<svg xmlns="http://www.w3.org/2000/svg" width="32" height="32" viewBox="0 0 24 24" fill="none" stroke="url(#g)" stroke-width="2" stroke-linecap="round" stroke-linejoin="round">
  <defs><linearGradient id="g" x1="0" y1="0" x2="24" y2="24"><stop stop-color="#7c6bf0"/><stop offset="1" stop-color="#a78bfa"/></linearGradient></defs>
  <path d="M21 16V8a2 2 0 0 0-1-1.73l-7-4a2 2 0 0 0-2 0l-7 4A2 2 0 0 0 3 8v8a2 2 0 0 0 1 1.73l7 4a2 2 0 0 0 2 0l7-4A2 2 0 0 0 21 16z"/>
  <polyline points="3.27 6.96 12 12.01 20.73 6.96"/>
  <line x1="12" y1="22.08" x2="12" y2="12"/>
</svg>
